<?xml version="1.0" encoding="UTF-8"?>
<svg id="Layer_2" data-name="Layer 2" xmlns="http://www.w3.org/2000/svg" viewBox="0 0 903.2 489.79">
  <defs>
    <style>
      .cls-1, .cls-2 {
        fill: #6366f1;
      }

      .cls-2 {
        opacity: .5;
      }
    </style>
  </defs>
  <g id="Layer_1-2" data-name="Layer 1">
    <g>
      <g>
        <path class="cls-1" d="M770.51,455.54c-4.62-2.25-11.47-7.67-11.05-10.81,.77-5.86,4.82-13.19,9.77-16.28,27.51-17.14,55.96-32.78,83.52-49.83,9.49-5.87,18.15-13.61,25.77-21.82,11.51-12.39,12.9-24.21,2.18-37.45-10.88-13.45-23.87-25.53-37.33-36.48-25.13-20.45-21.16-14.6-9.98-41.28,6.05-14.43,12.77-28.57,19.47-42.72,4.93-10.42,10.9-10.76,17.26-.98,7.93,12.18,14.36,24.9,19.33,38.15,6.56,17.52,8.65,29.11,11.09,46.19,1.77,12.36,3.24,28.91,2.43,48.55,0,.17-.02,.35-.05,.52-1.16,7.75-1.5,15.74-3.68,23.19-9.84,33.65-19.47,67.39-30.78,100.56-4.25,12.47-7.48,26.84-21.15,34.17-1.35,.73-2.98,.74-4.37,.1-24.17-11.2-48.47-22.12-72.42-33.78Z"/>
        <path class="cls-2" d="M876.63,.92c-1,11.63-5.61,21.68-15.8,27.64-26.92,15.75-54.22,30.83-82.63,46.89,.01-15.38,7.44-23.81,18.57-29.97,23.18-12.83,46.35-25.68,69.44-38.67,3.18-1.79,5.8-4.57,8.73-6.81l1.69,.92Z"/>
        <path class="cls-1" d="M772.49,215.48c-19.93-32.73-70.71-49.77-96.46-.56-8.09,15.48-16.74,30.7-23.77,46.69-11.43,25.8-29.39,40.11-58.68,37.53-6.53-.61-13.15-.1-19.68-.56-19.47-1.37-28.63-9.26-31.06-28.63-1.67-12.9-1.47-26.05-2.12-39.1-.04-.02-.07-.04-.11-.06-1.65-.9-3.7-.33-4.72,1.25-2.56,3.98-5.35,7.87-6.91,12.21-3.79,10.57-6.58,21.55-9.71,32.32-2.38,8.14-7.18,12.09-16.14,13.56-54.88,9.21-110.12,13-165.61,10.27-21.7-1.06-43.6-4.1-64.64-9.31-22.41-5.56-29.84-17.96-29.84-40.82V45.78c0-1.71-2.07-2.57-3.28-1.36-11.77,11.9-42.62,54.4-46.7,77.41-1.79,10.09-2.36,20.65-1.46,31.78,4.21,51.52,6.24,103.19,9.23,154.76,.84,14.42-8.12,27.71-21.91,32.01-28.76,8.97-58.3,12.29-88.33,10.55-49.17-2.88-73.5-32.93-66.97-82.04,1.11-8.25,3.09-16.49,3.59-24.79,.07-1.24-1.86-6.74-4.09-7.43-2.79-.86-6.06,7.79-6.48,9.12C5,281.61-3.34,313.41,1.31,351.7c5.11,41.88,27.67,72.59,64.24,80.83,48.81,11.03,94.23,.71,134.7-28.38,6.93-5.01,11.18-14.92,14.47-23.42,3.33-8.7,4.59-18.16,6.83-28.72,.29-1.38,1.93-1.97,3.04-1.11,18.63,14.38,38.43,22.23,59.68,25.38,68.59,10.22,136.77,4.05,204.6-7.18,3.84-.61,8.09-5.72,10.02-9.76,4.75-10.07,8.25-20.64,12.39-31.36,1.62,1.21,2.33,1.57,2.68,2.12,.61,.91,1.11,1.92,1.37,2.93,6.32,25.75,22.56,41.27,48.56,45.52,28.22,4.6,52.55-1.37,66.87-29.03,3.54-6.78,7.23-5.66,13.15-3.39,23.64,9.02,47.29,18.23,71.37,26,19.23,6.2,40.18-1.88,50.14-19.47,4.05-7.14,8.08-14.35,11.17-21.96,15.83-38.95,18.82-77.64-4.1-115.23Zm-103.16,47.64c-1.13-.59-1.39-2.11-.53-3.05,11.2-12.18,21.49-14.79,26.5-15.56,26.44-3.92,58.95,22.17,74.72,67.74,.57,1.66-1.18,3.17-2.74,2.36-32.65-17.14-65.3-34.31-97.95-51.49Z"/>
        <path class="cls-2" d="M642.49,480.97c1.13-13.58,5.8-22.5,15.2-27.84,27.46-15.62,55.19-30.74,84.18-46.81-2.02,12.31-6.42,21.88-16.2,27.56-27.03,15.69-54.38,30.84-83.18,47.1Z"/>
      </g>
      <path class="cls-1" d="M451.78,430.46l29.16-29.5c2.55-2.58,6.7-2.59,9.27-.03l25.01,25.01c2.55,2.55,6.69,2.55,9.24,0l25.04-25.04c2.55-2.55,6.69-2.55,9.24,0l29.52,29.52c2.56,2.56,2.55,6.72-.03,9.27l-29.5,29.16c-2.56,2.53-6.67,2.51-9.21-.03l-25.07-25.07c-2.55-2.55-6.69-2.55-9.24,0l-25.04,25.04c-2.55,2.55-6.69,2.55-9.24,0l-29.13-29.13c-2.54-2.54-2.55-6.66-.03-9.21Z"/>
      <rect class="cls-1" x="827.47" y="99.14" width="62.73" height="62.73" rx="6.53" ry="6.53" transform="translate(159.27 645.52) rotate(-45)"/>
    </g>
  </g>
</svg>